<svg version="1.1" id="Layer_1" xmlns="http://www.w3.org/2000/svg" xmlns:xlink="http://www.w3.org/1999/xlink" x="0px" y="0px"
	 width="100%" viewBox="0 0 702 702" enable-background="new 0 0 702 702" xml:space="preserve">
<path fill="#FFFFFF" opacity="1.000000" stroke="none" 
	d="
M371.000000,0.999998 
	C481.594269,1.000000 592.188538,1.000000 703.000000,1.000000 
	C703.000000,111.355255 703.000000,221.710648 702.622192,332.324158 
	C701.831787,327.493744 701.656860,322.372498 700.960938,317.323059 
	C699.092102,303.763245 697.534363,290.128479 694.880432,276.715942 
	C690.113403,252.624771 682.217834,229.428864 671.960571,207.147812 
	C660.286865,181.789886 646.188782,157.866470 628.657410,135.967270 
	C615.648743,119.717644 601.775269,104.433197 586.217468,90.567253 
	C570.202942,76.294312 553.199951,63.491402 534.900085,52.311962 
	C514.014221,39.552788 492.111603,28.996769 469.008148,20.949520 
	C451.375977,14.807982 433.552216,9.329921 414.951019,6.944077 
	C401.321564,5.195922 387.666077,3.651152 374.028046,1.968032 
	C372.994629,1.840490 372.008240,1.331613 371.000000,0.999998 
z"/>
<path fill="#FFFFFF" opacity="1.000000" stroke="none" 
	d="
M703.000000,371.000000 
	C703.000000,481.594055 703.000000,592.188110 703.000000,703.000000 
	C593.311401,703.000000 483.622681,703.000000 373.675049,702.621582 
	C389.452606,700.171204 405.571777,698.592773 421.507629,695.920715 
	C451.507263,690.890381 480.013916,680.804443 507.071991,667.176147 
	C522.699768,659.304932 537.759521,650.043518 552.174194,640.101868 
	C565.840210,630.676636 578.695923,619.965027 591.213318,609.024353 
	C599.785767,601.531677 607.505615,592.970520 614.992432,584.353394 
	C623.429810,574.642151 631.642334,564.664612 639.127258,554.211914 
	C653.584839,534.022156 665.451538,512.301086 675.194763,489.442078 
	C683.805176,469.240601 690.403442,448.403931 695.019775,426.931030 
	C698.771729,409.478973 701.565552,391.910217 702.044861,374.024261 
	C702.072083,373.008362 702.668518,372.007751 703.000000,371.000000 
z"/>
<path fill="#FFFFFF" opacity="1.000000" stroke="none" 
	d="
M1.000002,331.000000 
	C1.000000,221.072174 1.000000,111.144363 1.000000,1.000000 
	C111.355255,1.000000 221.710648,1.000000 332.324890,1.379487 
	C321.823334,2.832615 311.057617,3.856408 300.303619,4.991052 
	C282.125519,6.909005 264.602081,11.726896 247.134079,16.888470 
	C219.319839,25.107220 193.214920,37.291012 168.609955,52.331665 
	C138.651917,70.644569 111.500366,92.693398 88.906395,119.770393 
	C77.545372,133.385635 66.792801,147.572525 56.623924,162.101990 
	C44.567585,179.328278 35.174824,198.184341 27.244850,217.605240 
	C19.088562,237.580368 12.230524,258.124939 8.427579,279.417053 
	C5.588617,295.311951 4.101419,311.447815 1.972218,327.471008 
	C1.812998,328.669250 1.331620,329.824677 1.000002,331.000000 
z"/>
<path fill="#FFFFFF" opacity="1.000000" stroke="none" 
	d="
M331.000000,703.000000 
	C221.072388,703.000000 111.144768,703.000000 1.000000,703.000000 
	C1.000000,593.311401 1.000000,483.622681 1.378029,373.675476 
	C3.503724,388.211700 4.398354,403.171906 7.226771,417.757050 
	C10.375315,433.992981 14.431742,450.169708 19.626312,465.864716 
	C27.439156,489.470612 38.087036,511.894897 50.958759,533.276245 
	C62.868874,553.060181 76.592522,571.461304 92.130608,588.435974 
	C101.191154,598.334229 111.024261,607.604675 121.141327,616.433899 
	C131.089584,625.115906 141.560928,633.266846 152.294220,640.965515 
	C170.152908,653.774902 189.284836,664.485352 209.519501,673.116028 
	C219.217163,677.252380 228.842056,681.811523 238.915802,684.756653 
	C255.271393,689.538208 271.856842,693.706543 288.559113,697.072449 
	C301.022644,699.584351 313.825470,700.407410 326.471985,702.023315 
	C327.998016,702.218262 329.491455,702.668213 331.000000,703.000000 
z"/>
<path fill="#2582C3" opacity="1.000000" stroke="none" 
	d="
M331.468658,703.000000 
	C329.491455,702.668213 327.998016,702.218262 326.471985,702.023315 
	C313.825470,700.407410 301.022644,699.584351 288.559113,697.072449 
	C271.856842,693.706543 255.271393,689.538208 238.915802,684.756653 
	C228.842056,681.811523 219.217163,677.252380 209.519501,673.116028 
	C189.284836,664.485352 170.152908,653.774902 152.294220,640.965515 
	C141.560928,633.266846 131.089584,625.115906 121.141327,616.433899 
	C111.024261,607.604675 101.191154,598.334229 92.130608,588.435974 
	C76.592522,571.461304 62.868874,553.060181 50.958759,533.276245 
	C38.087036,511.894897 27.439156,489.470612 19.626312,465.864716 
	C14.431742,450.169708 10.375315,433.992981 7.226771,417.757050 
	C4.398354,403.171906 3.503724,388.211700 1.378029,373.208496 
	C1.000000,359.312439 1.000000,345.624878 1.000002,331.468658 
	C1.331620,329.824677 1.812998,328.669250 1.972218,327.471008 
	C4.101419,311.447815 5.588617,295.311951 8.427579,279.417053 
	C12.230524,258.124939 19.088562,237.580368 27.244850,217.605240 
	C35.174824,198.184341 44.567585,179.328278 56.623924,162.101990 
	C66.792801,147.572525 77.545372,133.385635 88.906395,119.770393 
	C111.500366,92.693398 138.651917,70.644569 168.609955,52.331665 
	C193.214920,37.291012 219.319839,25.107220 247.134079,16.888470 
	C264.602081,11.726896 282.125519,6.909005 300.303619,4.991052 
	C311.057617,3.856408 321.823334,2.832615 332.791870,1.379487 
	C345.354218,1.000000 357.708466,1.000000 370.531342,0.999998 
	C372.008240,1.331613 372.994629,1.840490 374.028046,1.968032 
	C387.666077,3.651152 401.321564,5.195922 414.951019,6.944077 
	C433.552216,9.329921 451.375977,14.807982 469.008148,20.949520 
	C492.111603,28.996769 514.014221,39.552788 534.900085,52.311962 
	C553.199951,63.491402 570.202942,76.294312 586.217468,90.567253 
	C601.775269,104.433197 615.648743,119.717644 628.657410,135.967270 
	C646.188782,157.866470 660.286865,181.789886 671.960571,207.147812 
	C682.217834,229.428864 690.113403,252.624771 694.880432,276.715942 
	C697.534363,290.128479 699.092102,303.763245 700.960938,317.323059 
	C701.656860,322.372498 701.831787,327.493744 702.622192,332.791138 
	C703.000000,345.354218 703.000000,357.708466 703.000000,370.531342 
	C702.668518,372.007751 702.072083,373.008362 702.044861,374.024261 
	C701.565552,391.910217 698.771729,409.478973 695.019775,426.931030 
	C690.403442,448.403931 683.805176,469.240601 675.194763,489.442078 
	C665.451538,512.301086 653.584839,534.022156 639.127258,554.211914 
	C631.642334,564.664612 623.429810,574.642151 614.992432,584.353394 
	C607.505615,592.970520 599.785767,601.531677 591.213318,609.024353 
	C578.695923,619.965027 565.840210,630.676636 552.174194,640.101868 
	C537.759521,650.043518 522.699768,659.304932 507.071991,667.176147 
	C480.013916,680.804443 451.507263,690.890381 421.507629,695.920715 
	C405.571777,698.592773 389.452606,700.171204 373.208069,702.621582 
	C359.312439,703.000000 345.624878,703.000000 331.468658,703.000000 
M30.486017,465.986755 
	C51.308887,524.040649 84.885788,573.471008 132.411194,612.742920 
	C214.211243,680.337219 308.157013,705.475403 412.527557,687.423462 
	C495.682556,673.041077 564.411011,631.901245 617.133789,566.001099 
	C681.458191,485.599609 704.695801,393.614655 687.494629,292.267670 
	C674.737488,217.104233 639.622620,153.008530 583.121155,101.781891 
	C500.108276,26.518812 402.310638,-1.865674 291.977234,16.569401 
	C216.058105,29.254356 151.938889,65.452393 100.103569,122.400597 
	C44.027786,184.007507 14.612425,256.901917 11.187039,340.097473 
	C9.421775,382.972137 16.034479,424.723633 30.486017,465.986755 
z"/>
<path fill="#F8FAFC" opacity="1.000000" stroke="none" 
	d="
M30.331795,465.622803 
	C16.034479,424.723633 9.421775,382.972137 11.187039,340.097473 
	C14.612425,256.901917 44.027786,184.007507 100.103569,122.400597 
	C151.938889,65.452393 216.058105,29.254356 291.977234,16.569401 
	C402.310638,-1.865674 500.108276,26.518812 583.121155,101.781891 
	C639.622620,153.008530 674.737488,217.104233 687.494629,292.267670 
	C704.695801,393.614655 681.458191,485.599609 617.133789,566.001099 
	C564.411011,631.901245 495.682556,673.041077 412.527557,687.423462 
	C308.157013,705.475403 214.211243,680.337219 132.411194,612.742920 
	C84.885788,573.471008 51.308887,524.040649 30.331795,465.622803 
M671.866699,442.293335 
	C684.614563,396.733490 687.629578,350.468048 680.711487,303.737305 
	C671.179871,239.352615 644.797607,182.573303 602.131287,133.357864 
	C520.229675,38.884773 388.514465,-1.721789 268.045319,30.443924 
	C91.798767,77.502411 -13.555849,253.293121 29.160154,430.498871 
	C70.173424,600.640930 238.310471,713.698730 418.200653,677.569702 
	C540.585327,652.989990 637.093140,562.816895 671.866699,442.293335 
z"/>
<path fill="#2884C4" opacity="1.000000" stroke="none" 
	d="
M671.747070,442.680664 
	C637.093140,562.816895 540.585327,652.989990 418.200653,677.569702 
	C238.310471,713.698730 70.173424,600.640930 29.160154,430.498871 
	C-13.555849,253.293121 91.798767,77.502411 268.045319,30.443924 
	C388.514465,-1.721789 520.229675,38.884773 602.131287,133.357864 
	C644.797607,182.573303 671.179871,239.352615 680.711487,303.737305 
	C687.629578,350.468048 684.614563,396.733490 671.747070,442.680664 
M173.039719,83.502586 
	C151.216690,98.145432 131.140915,114.881882 113.715019,134.567978 
	C43.966946,213.362579 17.237486,305.067596 34.505219,408.651245 
	C46.483845,480.507294 80.305489,541.664795 134.686691,590.169922 
	C217.853989,664.350586 315.250671,690.436157 423.787842,666.271606 
	C597.826538,627.523865 706.184204,453.819122 666.691895,280.530792 
	C630.752380,122.831726 483.992279,16.281342 322.804871,30.785814 
	C268.653351,35.658642 219.007980,53.246666 173.039719,83.502586 
z"/>
<path fill="#FDFEFE" opacity="1.000000" stroke="none" 
	d="
M173.340057,83.300766 
	C219.007980,53.246666 268.653351,35.658642 322.804871,30.785814 
	C483.992279,16.281342 630.752380,122.831726 666.691895,280.530792 
	C706.184204,453.819122 597.826538,627.523865 423.787842,666.271606 
	C315.250671,690.436157 217.853989,664.350586 134.686691,590.169922 
	C80.305489,541.664795 46.483845,480.507294 34.505219,408.651245 
	C17.237486,305.067596 43.966946,213.362579 113.715019,134.567978 
	C131.140915,114.881882 151.216690,98.145432 173.340057,83.300766 
M396.442719,352.054443 
	C396.081146,352.461517 395.719574,352.868591 394.801025,353.648712 
	C357.738190,384.131866 314.503601,394.986328 268.070374,388.345123 
	C204.997375,379.324036 162.968948,320.163269 171.846527,256.931793 
	C179.767273,200.515320 228.668747,156.882050 285.661743,157.361740 
	C334.722443,157.774658 374.414429,177.585266 402.289246,219.729843 
	C401.884949,218.025635 401.623535,216.621353 401.217957,215.260010 
	C396.286560,198.707504 387.465454,184.443726 374.248993,173.449371 
	C338.668396,143.851028 296.961426,135.462708 252.720657,143.745193 
	C181.801743,157.022202 136.344162,222.131729 145.886200,293.490753 
	C154.409912,357.234253 209.559967,406.682587 273.828369,408.136475 
	C302.867188,408.793427 330.969604,404.605377 356.970184,390.832947 
	C373.289459,382.188660 386.943237,370.490448 396.758270,353.844391 
	C396.856995,353.250885 396.955719,352.657349 397.597717,352.134552 
	C397.628387,351.880219 397.659088,351.625854 397.689758,351.371521 
	C397.456818,351.577606 397.223877,351.783691 396.442719,352.054443 
M548.258118,412.258728 
	C554.444824,435.618988 554.404297,458.982849 548.288452,482.347565 
	C530.715576,549.481873 464.576935,594.113403 394.712158,583.124695 
	C348.833862,575.908691 316.154877,551.589050 299.848633,507.537048 
	C294.873596,494.096710 292.341492,479.752106 288.834076,466.369293 
	C281.163849,484.609253 277.302490,504.395477 281.603607,525.137024 
	C287.709198,554.580383 304.710175,576.491272 330.020599,591.901062 
	C362.668427,611.778076 398.724854,616.617676 435.930664,612.640625 
	C482.068726,607.708740 520.951965,587.556519 551.154785,552.162720 
	C585.058289,512.432251 598.338257,466.149292 590.576599,414.548828 
	C584.180359,372.026550 563.851746,336.610931 530.639038,309.298889 
	C490.698639,276.454498 444.668488,261.545319 393.330688,270.366486 
	C344.561523,278.746277 312.390411,307.990112 298.414520,355.928650 
	C295.686981,365.284363 294.848755,375.190887 293.139099,384.843384 
	C328.178894,326.636414 379.803467,305.754456 444.952515,313.190155 
	C498.023560,326.327026 532.190674,359.299164 548.258118,412.258728 
M408.920380,210.468781 
	C409.224091,174.965668 391.791168,148.713043 363.496277,130.142303 
	C325.490082,105.197739 283.154968,98.294456 238.565430,106.889908 
	C143.333054,125.247681 81.506409,220.377151 103.433266,314.417145 
	C132.999619,441.221405 283.994202,491.651947 383.786835,408.095978 
	C403.300140,391.757538 406.835693,369.746826 406.576263,346.251282 
	C405.681244,347.089935 405.161346,348.081329 404.650085,349.077179 
	C394.274475,369.287445 378.897003,384.603546 358.781006,394.974304 
	C327.918793,410.885284 294.803253,415.683167 260.754730,411.662750 
	C195.335220,403.938019 144.047760,349.870544 140.398697,284.029907 
	C137.408051,230.069504 158.715256,186.435471 204.780045,158.061981 
	C257.554871,125.555466 311.787292,129.854172 364.278137,160.252930 
	C384.825378,172.152344 398.384674,190.727600 405.527222,213.627426 
	C406.220764,215.850967 406.860229,218.091354 407.524811,220.323929 
	C407.843231,220.292313 408.161652,220.260696 408.480072,220.229080 
	C408.625946,217.292450 408.771851,214.355804 408.920380,210.468781 
M484.065125,518.608459 
	C443.890900,547.910461 392.371338,549.727417 351.616455,522.581848 
	C330.128967,508.269714 313.347809,489.079742 298.896851,467.814484 
	C297.843262,466.264099 296.709778,464.768036 295.613403,463.246704 
	C295.073822,467.836914 295.353882,471.965485 296.014038,476.032318 
	C300.323456,502.579437 309.544952,527.154053 329.047241,546.230042 
	C360.958069,577.443481 400.103424,585.896667 442.672028,577.152954 
	C499.577179,565.464478 540.143921,521.223328 547.021790,463.214600 
	C552.965698,413.082794 534.565613,372.234436 495.033173,340.917999 
	C493.787842,339.931488 492.132019,339.463135 490.667542,338.753235 
	C546.936646,389.564819 541.314514,475.119781 484.065125,518.608459 
M140.618896,522.684509 
	C144.179443,544.324219 162.256866,558.483337 184.384109,556.963684 
	C203.773026,555.632080 220.330933,538.248291 220.977509,518.544922 
	C221.759323,494.720459 202.532516,475.241547 179.143021,476.161865 
	C155.422638,477.095184 137.922684,497.730774 140.618896,522.684509 
M465.591339,201.776810 
	C474.578583,218.864044 490.723541,227.057098 509.424011,224.020538 
	C529.246399,220.801758 543.563171,202.291183 542.285889,181.532425 
	C541.042236,161.320847 524.291809,144.674194 504.469879,143.950775 
	C473.410278,142.817245 453.582184,171.696167 465.591339,201.776810 
M199.389542,475.926483 
	C216.554901,484.416412 224.976730,498.453766 225.554092,517.653687 
	C230.436142,507.935516 227.083603,491.392303 217.788071,481.526337 
	C208.653305,471.831055 193.404922,467.107819 183.319778,471.013184 
	C188.446854,472.543335 193.573929,474.073486 199.389542,475.926483 
M469.868439,215.629410 
	C461.217896,206.829941 457.423584,195.989944 456.540619,183.897461 
	C452.913940,197.455368 455.607605,209.549103 465.268036,219.738754 
	C474.533325,229.511536 486.061890,232.625900 499.316223,230.007111 
	C488.319763,228.093170 478.329132,224.199753 469.868439,215.629410 
z"/>
<path fill="#33A1C8" opacity="1.000000" stroke="none" 
	d="
M548.162659,411.860901 
	C532.190674,359.299164 498.023560,326.327026 444.952515,313.190155 
	C379.803467,305.754456 328.178894,326.636414 293.139099,384.843384 
	C294.848755,375.190887 295.686981,365.284363 298.414520,355.928650 
	C312.390411,307.990112 344.561523,278.746277 393.330688,270.366486 
	C444.668488,261.545319 490.698639,276.454498 530.639038,309.298889 
	C563.851746,336.610931 584.180359,372.026550 590.576599,414.548828 
	C598.338257,466.149292 585.058289,512.432251 551.154785,552.162720 
	C520.951965,587.556519 482.068726,607.708740 435.930664,612.640625 
	C398.724854,616.617676 362.668427,611.778076 330.020599,591.901062 
	C304.710175,576.491272 287.709198,554.580383 281.603607,525.137024 
	C277.302490,504.395477 281.163849,484.609253 288.834076,466.369293 
	C292.341492,479.752106 294.873596,494.096710 299.848633,507.537048 
	C316.154877,551.589050 348.833862,575.908691 394.712158,583.124695 
	C464.576935,594.113403 530.715576,549.481873 548.288452,482.347565 
	C554.404297,458.982849 554.444824,435.618988 548.162659,411.860901 
z"/>
<path fill="#16C897" opacity="1.000000" stroke="none" 
	d="
M408.919067,210.943970 
	C408.771851,214.355804 408.625946,217.292450 408.480072,220.229080 
	C408.161652,220.260696 407.843231,220.292313 407.524811,220.323929 
	C406.860229,218.091354 406.220764,215.850967 405.527222,213.627426 
	C398.384674,190.727600 384.825378,172.152344 364.278137,160.252930 
	C311.787292,129.854172 257.554871,125.555466 204.780045,158.061981 
	C158.715256,186.435471 137.408051,230.069504 140.398697,284.029907 
	C144.047760,349.870544 195.335220,403.938019 260.754730,411.662750 
	C294.803253,415.683167 327.918793,410.885284 358.781006,394.974304 
	C378.897003,384.603546 394.274475,369.287445 404.650085,349.077179 
	C405.161346,348.081329 405.681244,347.089935 406.576263,346.251282 
	C406.835693,369.746826 403.300140,391.757538 383.786835,408.095978 
	C283.994202,491.651947 132.999619,441.221405 103.433266,314.417145 
	C81.506409,220.377151 143.333054,125.247681 238.565430,106.889908 
	C283.154968,98.294456 325.490082,105.197739 363.496277,130.142303 
	C391.791168,148.713043 409.224091,174.965668 408.919067,210.943970 
z"/>
<path fill="#17B597" opacity="1.000000" stroke="none" 
	d="
M396.238037,354.216827 
	C386.943237,370.490448 373.289459,382.188660 356.970184,390.832947 
	C330.969604,404.605377 302.867188,408.793427 273.828369,408.136475 
	C209.559967,406.682587 154.409912,357.234253 145.886200,293.490753 
	C136.344162,222.131729 181.801743,157.022202 252.720657,143.745193 
	C296.961426,135.462708 338.668396,143.851028 374.248993,173.449371 
	C387.465454,184.443726 396.286560,198.707504 401.217957,215.260010 
	C401.623535,216.621353 401.884949,218.025635 402.289246,219.729843 
	C374.414429,177.585266 334.722443,157.774658 285.661743,157.361740 
	C228.668747,156.882050 179.767273,200.515320 171.846527,256.931793 
	C162.968948,320.163269 204.997375,379.324036 268.070374,388.345123 
	C314.503601,394.986328 357.738190,384.131866 395.288727,353.708679 
	C395.930298,353.918030 396.084167,354.067444 396.238037,354.216827 
z"/>
<path fill="#2083C9" opacity="1.000000" stroke="none" 
	d="
M484.341370,518.380737 
	C541.314514,475.119781 546.936646,389.564819 490.667542,338.753235 
	C492.132019,339.463135 493.787842,339.931488 495.033173,340.917999 
	C534.565613,372.234436 552.965698,413.082794 547.021790,463.214600 
	C540.143921,521.223328 499.577179,565.464478 442.672028,577.152954 
	C400.103424,585.896667 360.958069,577.443481 329.047241,546.230042 
	C309.544952,527.154053 300.323456,502.579437 296.014038,476.032318 
	C295.353882,471.965485 295.073822,467.836914 295.613403,463.246704 
	C296.709778,464.768036 297.843262,466.264099 298.896851,467.814484 
	C313.347809,489.079742 330.128967,508.269714 351.616455,522.581848 
	C392.371338,549.727417 443.890900,547.910461 484.341370,518.380737 
z"/>
<path fill="#33A1C8" opacity="1.000000" stroke="none" 
	d="
M140.513916,522.260376 
	C137.922684,497.730774 155.422638,477.095184 179.143021,476.161865 
	C202.532516,475.241547 221.759323,494.720459 220.977509,518.544922 
	C220.330933,538.248291 203.773026,555.632080 184.384109,556.963684 
	C162.256866,558.483337 144.179443,544.324219 140.513916,522.260376 
z"/>
<path fill="#15C897" opacity="1.000000" stroke="none" 
	d="
M465.407501,201.444153 
	C453.582184,171.696167 473.410278,142.817245 504.469879,143.950775 
	C524.291809,144.674194 541.042236,161.320847 542.285889,181.532425 
	C543.563171,202.291183 529.246399,220.801758 509.424011,224.020538 
	C490.723541,227.057098 474.578583,218.864044 465.407501,201.444153 
z"/>
<path fill="#389AD1" opacity="1.000000" stroke="none" 
	d="
M199.045273,475.765076 
	C193.573929,474.073486 188.446854,472.543335 183.320450,471.011108 
	C193.404922,467.107819 208.653305,471.831055 217.788071,481.526337 
	C227.083603,491.392303 230.436142,507.935516 225.554092,517.653687 
	C224.976730,498.453766 216.554901,484.416412 199.045273,475.765076 
z"/>
<path fill="#20B89B" opacity="1.000000" stroke="none" 
	d="
M470.119568,215.880951 
	C478.329132,224.199753 488.319763,228.093170 499.316223,230.007111 
	C486.061890,232.625900 474.533325,229.511536 465.268036,219.738754 
	C455.607605,209.549103 452.913940,197.455368 456.540619,183.897461 
	C457.423584,195.989944 461.217896,206.829941 470.119568,215.880951 
z"/>
<path fill="#17B597" opacity="1.000000" stroke="none" 
	d="
M397.054413,352.063843 
	C396.955719,352.657349 396.856995,353.250885 396.498169,354.030609 
	C396.084167,354.067444 395.930298,353.918030 395.567200,353.522156 
	C395.719574,352.868591 396.081146,352.461517 396.732910,352.040344 
	C397.023102,352.026276 397.054413,352.063843 397.054413,352.063843 
z"/>
<path fill="#17B597" opacity="1.000000" stroke="none" 
	d="
M397.007019,352.008057 
	C397.223877,351.783691 397.456818,351.577606 397.689758,351.371521 
	C397.659088,351.625854 397.628387,351.880219 397.326050,352.099182 
	C397.054413,352.063843 397.023102,352.026276 397.007019,352.008057 
z"/>
</svg>